<?xml version="1.0" encoding="UTF-8"?>
<svg width="109px" height="27px" viewBox="0 0 109 27" version="1.1" xmlns="http://www.w3.org/2000/svg" xmlns:xlink="http://www.w3.org/1999/xlink">
    <!-- Generator: sketchtool 51.1 (57501) - http://www.bohemiancoding.com/sketch -->
    <title>EBB6C017-CFD6-4BE4-A893-4EA73A810ABF</title>
    <desc>Created with sketchtool.</desc>
    <defs></defs>
    <g id="Page-1" stroke="none" stroke-width="1" fill="none" fill-rule="evenodd">
        <g id="Subscribe-Form" transform="translate(-578.000000, -212.000000)" fill="#212121">
            <g id="Form" transform="translate(352.000000, 135.000000)">
                <g id="Header">
                    <g id="Logotype-/-Landscape" transform="translate(226.000000, 77.000000)">
                        <g id="Logo-Sign-/-Black">
                            <path d="M0,13.1944444 L7.50014789,0 L23.4906832,0 L31,13.2037037 L23.426501,27 L7.70186335,27 L0,13.1944444 Z M6.90068493,3.10714286 L1.48630137,12.9410173 L6.30986458,14.0357143 L6.90068493,3.10714286 Z M1.9109589,14.3571429 L7.32534247,24.2142857 L6.3597774,15.3484157 L1.9109589,14.3571429 Z M7.75,15.8571429 L8.82111993,25.5 L19.8527397,22.4524496 L7.75,15.8571429 Z M12.3150685,25.7142857 L22.2945205,25.7142857 L21.1928331,23.3571429 L12.3150685,25.7142857 Z M22.1883562,22.7593168 L23.2070109,24.9642857 L27.4965753,17.3571429 L22.1883562,22.7593168 Z M8.28082192,14.8513329 L20.8082192,21.6428571 L20.0109379,8.14285714 L8.28082192,14.8513329 Z M7.75,13.6071429 L19.109589,7.17014539 L8.42091424,1.71428571 L7.75,13.6071429 Z M9.97945205,1.07142857 L20.1514036,6.32142857 L21.7636986,1.07142857 L9.97945205,1.07142857 Z M21.9768624,21.3214286 L29.4075342,13.5734228 L21.2328767,8.57142857 L21.9768624,21.3214286 Z M21.2328767,7.13816382 L28.6643836,11.7857143 L22.9193959,1.5 L21.2328767,7.13816382 Z" id="Sign-Copy-2"></path>
                        </g>
                        <g id="Logo-text-/-Black" transform="translate(34.516667, 5.850000)">
                            <path d="M1.89347397,15.2465622 L0.216585366,15.2465622 L6.71187538,0.443894564 L8.19772604,0.443894564 L14.6505632,15.2465622 L12.9524481,15.2465622 L11.296786,11.3577258 L3.52790969,11.3577258 L1.89347397,15.2465622 Z M4.10102351,9.97781611 L10.7236722,9.97781611 L7.41234784,2.11651238 L4.10102351,9.97781611 Z M18.2378312,15.2465622 L16.7944334,15.2465622 L16.7944334,5.46174801 L18.2378312,5.46174801 L18.2378312,15.2465622 Z M18.5350013,1.69835792 C18.5350013,1.99106751 18.4288702,2.23150391 18.2166048,2.41967436 C18.0043393,2.6078448 17.7708508,2.70192861 17.5161323,2.70192861 C17.2614138,2.70192861 17.0279253,2.6078448 16.8156599,2.41967436 C16.6033944,2.23150391 16.4972633,1.99106751 16.4972633,1.69835792 C16.4972633,1.40564834 16.6033944,1.16521194 16.8156599,0.977041492 C17.0279253,0.788871047 17.2614138,0.694787236 17.5161323,0.694787236 C17.7708508,0.694787236 18.0043393,0.788871047 18.2166048,0.977041492 C18.4288702,1.16521194 18.5350013,1.40564834 18.5350013,1.69835792 Z M22.0798165,7.61524344 C22.0798165,7.35041096 22.0727411,7.00892158 22.05859,6.59076503 C22.044439,6.17260849 22.0232128,5.79627324 21.9949107,5.46174801 L23.3746292,5.46174801 C23.4029312,5.72658048 23.4241575,6.01928568 23.4383085,6.33987236 C23.4524595,6.66045904 23.4595349,6.92528755 23.4595349,7.13436582 L23.5019878,7.13436582 C23.7850084,6.56288521 24.2095329,6.09943533 24.7755741,5.74400226 C25.3416153,5.3885692 25.978402,5.21085533 26.6859535,5.21085533 C26.8699169,5.21085533 27.036189,5.21782451 27.1847748,5.23176306 C27.3333606,5.24570161 27.4854819,5.27357829 27.6411432,5.31539395 L27.4501053,6.6534882 C27.3651991,6.6256111 27.2236909,6.59773441 27.0255765,6.56985731 C26.8274621,6.54198021 26.6293507,6.52804186 26.4312363,6.52804186 C26.0491585,6.52804186 25.6812372,6.59773358 25.3274615,6.73711909 C24.9736857,6.8765046 24.6659055,7.0960335 24.4041114,7.39571235 C24.1423174,7.69539121 23.9300551,8.07869563 23.7673183,8.5456371 C23.6045814,9.01257858 23.5232143,9.57359686 23.5232143,10.2287088 L23.5232143,15.2465622 L22.0798165,15.2465622 L22.0798165,7.61524344 Z M41.2048371,3.09917534 C40.681249,2.55557184 40.058613,2.13393698 39.3369105,1.83425812 C38.615208,1.53457927 37.7873852,1.38474208 36.8534173,1.38474208 C35.8911473,1.38474208 35.0244097,1.55897136 34.2531786,1.90743515 C33.4819475,2.25589894 32.8274722,2.72631799 32.2897331,3.31870643 C31.751994,3.91109487 31.3380826,4.59755823 31.0479865,5.37811712 C30.7578904,6.158676 30.6128445,6.9810382 30.6128445,7.84522839 C30.6128445,8.70941858 30.7578904,9.53178079 31.0479865,10.3123397 C31.3380826,11.0928986 31.751994,11.7758773 32.2897331,12.3612965 C32.8274722,12.9467157 33.4819475,13.4136501 34.2531786,13.7621139 C35.0244097,14.1105777 35.8911473,14.284807 36.8534173,14.284807 C37.7024791,14.284807 38.480774,14.1942078 39.1883255,14.0130066 C39.8958769,13.8318054 40.468985,13.6018228 40.9076669,13.3230517 L40.9076669,8.82789136 L37.4053047,8.82789136 L37.4053047,7.51070483 L42.4359705,7.51070483 L42.4359705,14.1802684 C41.6152108,14.6681177 40.7307847,15.0305146 39.7826657,15.2674699 C38.8345468,15.5044253 37.851065,15.6229012 36.8321909,15.6229012 C35.7001085,15.6229012 34.652948,15.4277644 33.690678,15.037485 C32.728408,14.6472056 31.9005852,14.1070948 31.2071848,13.4171365 C30.5137844,12.7271782 29.9725156,11.9083006 29.5833623,10.9604791 C29.194209,10.0126576 28.9996352,8.97425106 28.9996352,7.84522839 C28.9996352,6.71620572 29.1977467,5.67779921 29.5939755,4.72997771 C29.9902043,3.78215621 30.5385485,2.9632786 31.2390245,2.2733203 C31.9395004,1.583362 32.7673232,1.04325123 33.7225177,0.652971791 C34.6777122,0.262692349 35.7142595,0.0675555556 36.8321909,0.0675555556 C38.0350284,0.0675555556 39.0821888,0.241784836 39.9737037,0.590248623 C40.8652185,0.938712409 41.6293626,1.42655439 42.266159,2.05378921 L41.2048371,3.09917534 Z M53.7708883,12.6958201 L53.7921148,12.6958201 L58.8227806,0.443894564 L61.1576888,0.443894564 L61.1576888,15.2465622 L59.6293852,15.2465622 L59.6293852,2.38831277 L59.5869324,2.38831277 L54.1529642,15.2465622 L53.3463596,15.2465622 L47.9123915,2.38831277 L47.8699386,2.38831277 L47.8699386,15.2465622 L46.3416351,15.2465622 L46.3416351,0.443894564 L48.6765432,0.443894564 L53.7708883,12.6958201 Z M72.4289273,2.82737495 C72.1034536,2.3813413 71.6860045,2.02242899 71.1765675,1.75062723 C70.6671304,1.47882548 70.0515699,1.34292664 69.3298674,1.34292664 C68.9619406,1.34292664 68.586944,1.39868001 68.2048662,1.51018842 C67.8227884,1.62169683 67.4760934,1.79244153 67.1647707,2.02242763 C66.8534481,2.25241373 66.6022711,2.54163433 66.4112322,2.89009812 C66.2201933,3.2385619 66.1246752,3.64974301 66.1246752,4.12365376 C66.1246752,4.59756451 66.2166556,4.98783809 66.4006189,5.29448623 C66.5845823,5.60113436 66.8286839,5.86247828 67.132931,6.07852583 C67.4371782,6.29457337 67.7838732,6.47228724 68.1730265,6.61167275 C68.5621798,6.75105827 68.9690158,6.89044169 69.3935467,7.02982721 C69.9171348,7.19708983 70.4442527,7.37828828 70.9749163,7.573428 C71.5055799,7.76856772 71.98317,8.02294247 72.4077009,8.33655988 C72.8322318,8.65017728 73.1789268,9.04742004 73.4477963,9.52830007 C73.7166659,10.0091801 73.8510987,10.6189826 73.8510987,11.3577258 C73.8510987,12.096469 73.7060528,12.7341482 73.4159567,13.2707824 C73.1258606,13.8074167 72.7508639,14.249959 72.2909555,14.5984228 C71.831047,14.9468866 71.3074668,15.2047459 70.7201991,15.3720086 C70.1329313,15.5392712 69.5421347,15.6229012 68.9477915,15.6229012 C68.4949586,15.6229012 68.0421324,15.5776016 67.5892995,15.487001 C67.1364665,15.3964004 66.7048666,15.2605016 66.2944867,15.0793004 C65.8841069,14.8980993 65.5020348,14.6681166 65.1482591,14.3893456 C64.7944834,14.1105746 64.4831654,13.7899927 64.2142958,13.4275903 L65.530335,12.4658351 C65.8558087,12.9955001 66.3121725,13.4380424 66.8994402,13.7934755 C67.4867079,14.1489086 68.1765603,14.3266224 68.9690179,14.3266224 C69.3510957,14.3266224 69.7402432,14.2673845 70.136472,14.1489068 C70.5327008,14.0304291 70.890009,13.8492306 71.2084071,13.605306 C71.5268053,13.3613813 71.7885954,13.061707 71.9937853,12.7062739 C72.1989753,12.3508409 72.3015687,11.9361752 72.3015687,11.4622644 C72.3015687,10.946538 72.1989753,10.517934 71.9937853,10.1764395 C71.7885954,9.83494496 71.5161922,9.54920894 71.1765675,9.31922284 C70.8369428,9.08923674 70.4477953,8.89758453 70.0091134,8.74426047 C69.5704315,8.5909364 69.1105299,8.43761463 68.6293949,8.28429057 C68.1341089,8.1309665 67.6459057,7.95673722 67.1647707,7.7615975 C66.6836357,7.56645778 66.2520358,7.31208303 65.869958,6.99846562 C65.4878802,6.68484822 65.1800999,6.29805921 64.9466079,5.83808701 C64.713116,5.37811482 64.5963717,4.81361195 64.5963717,4.14456148 C64.5963717,3.43369535 64.7414176,2.82040829 65.0315137,2.30468188 C65.3216098,1.78895548 65.7001441,1.36383603 66.1671281,1.0293108 C66.6341121,0.694785563 67.1506169,0.450864571 67.7166581,0.297540505 C68.2826993,0.144216439 68.8416565,0.0675555556 69.3935467,0.0675555556 C70.4124208,0.0675555556 71.2826961,0.245269421 72.0043986,0.600702484 C72.7261011,0.956135547 73.2709075,1.3777704 73.6388343,1.86561971 L72.4289273,2.82737495 Z" id="AirGMS"></path>
                        </g>
                    </g>
                </g>
            </g>
        </g>
    </g>
</svg>