<?xml version="1.0" encoding="UTF-8"?>
<svg width="64px" height="16px" viewBox="0 0 64 16" version="1.1" xmlns="http://www.w3.org/2000/svg" xmlns:xlink="http://www.w3.org/1999/xlink">
    <!-- Generator: sketchtool 51.1 (57501) - http://www.bohemiancoding.com/sketch -->
    <title>22705679-8A79-4C23-A337-2B9E092C1BA8</title>
    <desc>Created with sketchtool.</desc>
    <defs></defs>
    <g id="Page-1" stroke="none" stroke-width="1" fill="none" fill-rule="evenodd">
        <g id="Tip-1" transform="translate(-96.000000, -736.000000)" fill="#FFFFFF">
            <g id="UI" transform="translate(40.000000, 40.000000)">
                <g id="Copy" transform="translate(0.000000, 688.000000)">
                    <g id="Logotype-/-Landscape" transform="translate(56.000000, 8.000000)">
                        <g id="Logo-Sign-/-White">
                            <path d="M0,7.81893004 L4.35492458,0 L13.6397516,0 L18,7.82441701 L13.6024845,16 L4.47204969,16 L0,7.81893004 Z M4.00684932,1.84126984 L0.863013699,7.668751 L3.66379233,8.31746032 L4.00684932,1.84126984 Z M1.10958904,8.50793651 L4.25342466,14.3492063 L3.69277397,9.09535744 L1.10958904,8.50793651 Z M4.5,9.3968254 L5.1219406,15.1111111 L11.5273973,13.3051553 L4.5,9.3968254 Z M7.15068493,15.2380952 L12.9452055,15.2380952 L12.305516,13.8412698 L7.15068493,15.2380952 Z M12.8835616,13.4870025 L13.4750386,14.7936508 L15.9657534,10.2857143 L12.8835616,13.4870025 Z M4.80821918,8.80078985 L12.0821918,12.8253968 L11.6192542,4.82539683 L4.80821918,8.80078985 Z M4.5,8.06349206 L11.0958904,4.24897505 L4.88956311,1.01587302 L4.5,8.06349206 Z M5.79452055,0.634920635 L11.700815,3.74603175 L12.6369863,0.634920635 L5.79452055,0.634920635 Z M12.7607588,12.6349206 L17.0753425,8.04350979 L12.3287671,5.07936508 L12.7607588,12.6349206 Z M12.3287671,4.230023 L16.6438356,6.98412698 L13.3080363,0.888888889 L12.3287671,4.230023 Z" id="Sign-Copy-2"></path>
                        </g>
                        <g id="Logo-text-/-White" transform="translate(20.266667, 3.466667)">
                            <path d="M1.12584938,9.52910139 L0.128780488,9.52910139 L3.99084482,0.277434102 L4.87432359,0.277434102 L8.71114568,9.52910139 L7.70145565,9.52910139 L6.71700788,7.09857863 L2.09767603,7.09857863 L1.12584938,9.52910139 Z M2.43844641,6.23613507 L6.3762375,6.23613507 L4.40734196,1.32282024 L2.43844641,6.23613507 Z M10.8441158,9.52910139 L9.98587933,9.52910139 L9.98587933,3.4135925 L10.8441158,3.4135925 L10.8441158,9.52910139 Z M11.0208116,1.0614737 C11.0208116,1.24441719 10.9577066,1.39468994 10.8314947,1.51229647 C10.7052828,1.629903 10.5664518,1.68870538 10.4149976,1.68870538 C10.2635433,1.68870538 10.1247123,1.629903 9.99850045,1.51229647 C9.87228857,1.39468994 9.80918357,1.24441719 9.80918357,1.0614737 C9.80918357,0.878530215 9.87228857,0.728257461 9.99850045,0.610650933 C10.1247123,0.493044404 10.2635433,0.434242022 10.4149976,0.434242022 C10.5664518,0.434242022 10.7052828,0.493044404 10.8314947,0.610650933 C10.9577066,0.728257461 11.0208116,0.878530215 11.0208116,1.0614737 Z M13.1285395,4.75952715 C13.1285395,4.59400685 13.1243325,4.38057598 13.1159184,4.11922814 C13.1075043,3.8578803 13.0948833,3.62267078 13.078055,3.4135925 L13.8984282,3.4135925 C13.9152564,3.5791128 13.9278774,3.76205355 13.9362915,3.96242022 C13.9447057,4.1627869 13.9489127,4.32830472 13.9489127,4.45897864 L13.9741549,4.45897864 C14.1424374,4.10180326 14.3948574,3.81214708 14.7314224,3.59000141 C15.0679875,3.36785575 15.4466174,3.25678458 15.8673237,3.25678458 C15.9767073,3.25678458 16.0755718,3.26114032 16.1639202,3.26985191 C16.2522685,3.27856351 16.342719,3.29598643 16.4352743,3.32212122 L16.3216842,4.15843012 C16.2711995,4.14100694 16.1870595,4.12358401 16.0692617,4.10616082 C15.951464,4.08873763 15.833668,4.08002616 15.7158702,4.08002616 C15.4886888,4.08002616 15.2699248,4.12358348 15.0595717,4.21069943 C14.8492185,4.29781538 14.6662141,4.43502094 14.5105527,4.62232022 C14.3548914,4.80961951 14.2286814,5.04918477 14.131919,5.34102319 C14.0351565,5.63286161 13.986776,5.98349804 13.986776,6.39294299 L13.986776,9.52910139 L13.1285395,9.52910139 L13.1285395,4.75952715 Z M24.5001734,1.93698459 C24.1888507,1.5972324 23.8186348,1.33371061 23.3895144,1.14641133 C22.960394,0.959112041 22.468175,0.865463803 21.9128427,0.865463803 C21.3406822,0.865463803 20.8253247,0.974357103 20.3667549,1.19214697 C19.908185,1.40993684 19.5190376,1.70394875 19.1993008,2.07419152 C18.879564,2.44443429 18.6334545,2.8734739 18.460965,3.3613232 C18.2884754,3.8491725 18.2022319,4.36314888 18.2022319,4.90326775 C18.2022319,5.44338661 18.2884754,5.95736299 18.460965,6.44521229 C18.6334545,6.93306159 18.879564,7.35992333 19.1993008,7.72581031 C19.5190376,8.09169728 19.908185,8.38353133 20.3667549,8.60132119 C20.8253247,8.81911106 21.3406822,8.92800436 21.9128427,8.92800436 C22.4176902,8.92800436 22.8804602,8.87137984 23.3011665,8.75812911 C23.7218728,8.64487838 24.0626397,8.50113923 24.3234776,8.32690733 L24.3234776,5.5174321 L22.240992,5.5174321 L22.240992,4.69419052 L25.2321987,4.69419052 L25.2321987,8.86266773 C24.7441794,9.16757354 24.2183044,9.39407161 23.654558,9.54216871 C23.0908116,9.69026582 22.5060386,9.76431327 21.9002216,9.76431327 C21.2270915,9.76431327 20.6044556,9.64235277 20.032295,9.39842812 C19.4601345,9.15450347 18.9679155,8.81693424 18.5556234,8.3857103 C18.1433312,7.95448637 17.8214958,7.44268786 17.5901073,6.85029942 C17.3587189,6.25791098 17.2430264,5.60890691 17.2430264,4.90326775 C17.2430264,4.19762858 17.3608224,3.54862451 17.5964179,2.95623607 C17.8320134,2.36384763 18.1580559,1.85204912 18.5745551,1.42082519 C18.9910543,0.98960125 19.4832733,0.65203202 20.0512267,0.408107369 C20.6191802,0.164182718 21.2355057,0.0422222222 21.9002216,0.0422222222 C22.6154223,0.0422222222 23.2380582,0.151115522 23.7681481,0.368905389 C24.298238,0.586695256 24.752594,0.891596496 25.1312297,1.28361826 L24.5001734,1.93698459 Z M31.9718796,7.93488753 L31.9845007,7.93488753 L34.9757074,0.277434102 L36.3640312,0.277434102 L36.3640312,9.52910139 L35.4553101,9.52910139 L35.4553101,1.49269548 L35.4300679,1.49269548 L32.1990598,9.52910139 L31.7194571,9.52910139 L28.488449,1.49269548 L28.4632067,1.49269548 L28.4632067,9.52910139 L27.5544857,9.52910139 L27.5544857,0.277434102 L28.9428095,0.277434102 L31.9718796,7.93488753 Z M43.0658487,1.76710934 C42.8723238,1.48833831 42.6241108,1.26401812 42.3212023,1.09414202 C42.0182938,0.924265923 41.6522848,0.839329149 41.2231644,0.839329149 C41.0043971,0.839329149 40.7814261,0.874175005 40.5542447,0.943867763 C40.3270634,1.01356052 40.1209204,1.12027595 39.9358096,1.26401727 C39.7506988,1.40775858 39.6013504,1.58852146 39.4877597,1.80631132 C39.374169,2.02410119 39.3173745,2.28108938 39.3173745,2.5772836 C39.3173745,2.87347782 39.3720655,3.11739881 39.4814491,3.30905389 C39.5908327,3.50070897 39.7359742,3.66404892 39.9168779,3.79907864 C40.0977816,3.93410836 40.3039246,4.04517952 40.5353131,4.13229547 C40.7667015,4.21941142 41.008604,4.30652606 41.2610278,4.393642 C41.5723504,4.49818114 41.8857719,4.61143017 42.2013016,4.7333925 C42.5168313,4.85535482 42.8008038,5.01433904 43.0532276,5.21034992 C43.3056513,5.4063608 43.5117943,5.65463753 43.6716627,5.95518754 C43.8315311,6.25573756 43.9114641,6.63686411 43.9114641,7.09857863 C43.9114641,7.56029314 43.8252206,7.95884262 43.652731,8.29423902 C43.4802414,8.62963541 43.2572704,8.90622439 42.9838114,9.12401426 C42.7103523,9.34180413 42.3990343,9.50296621 42.0498481,9.60750535 C41.7006619,9.71204448 41.3493774,9.76431327 40.9959841,9.76431327 C40.7267321,9.76431327 40.4574841,9.73600101 40.1882321,9.67937564 C39.9189801,9.62275028 39.6623531,9.53781351 39.4183435,9.42456277 C39.1743338,9.31131204 38.9471558,9.16757289 38.7368027,8.99334099 C38.5264496,8.8191091 38.3413416,8.61874543 38.1814732,8.39224397 L38.963983,7.79114694 C39.1575079,8.12218754 39.4288593,8.39877652 39.7780455,8.62092218 C40.1272318,8.84306785 40.5374142,8.95413901 41.0086053,8.95413901 C41.2357866,8.95413901 41.4671716,8.91711529 41.7027671,8.84306674 C41.9383627,8.76901818 42.1508161,8.65576915 42.340134,8.50331624 C42.5294518,8.35086334 42.6851108,8.16356686 42.8071156,7.9414212 C42.9291204,7.71927553 42.9901219,7.46010948 42.9901219,7.16391526 C42.9901219,6.84158626 42.9291204,6.57370874 42.8071156,6.36027467 C42.6851108,6.1468406 42.5231413,5.96825559 42.3212023,5.82451428 C42.1192633,5.68077296 41.8878783,5.56099033 41.6270404,5.46516279 C41.3662025,5.36933525 41.0927475,5.27350915 40.8066673,5.17768161 C40.5121729,5.08185406 40.2218899,4.97296076 39.9358096,4.85099844 C39.6497293,4.72903611 39.3931024,4.57005189 39.165921,4.37404101 C38.9387396,4.17803013 38.7557351,3.93628701 38.616902,3.64880438 C38.4780689,3.36132176 38.4086534,3.00850747 38.4086534,2.59035092 C38.4086534,2.1460596 38.4948969,1.76275518 38.6673865,1.44042618 C38.8398761,1.11809717 39.0649506,0.852397521 39.3426167,0.643319249 C39.6202829,0.434240977 39.9273938,0.281790357 40.2639589,0.185962816 C40.6005239,0.0901352742 40.9328769,0.0422222222 41.2610278,0.0422222222 C41.8668448,0.0422222222 42.3843058,0.153293388 42.8134262,0.375439052 C43.2425466,0.597584717 43.5664856,0.861106503 43.7852528,1.16601232 L43.0658487,1.76710934 Z" id="AirGMS"></path>
                        </g>
                    </g>
                </g>
            </g>
        </g>
    </g>
</svg>