<?xml version="1.0" encoding="utf-8"?>
<!-- Generator: Adobe Illustrator 22.1.0, SVG Export Plug-In . SVG Version: 6.00 Build 0)  -->
<svg version="1.1" width="113px" height="117px" xmlns="http://www.w3.org/2000/svg" xmlns:xlink="http://www.w3.org/1999/xlink" x="0px" y="0px"
	 viewBox="0 0 113 117" style="enable-background:new 0 0 113 117;" xml:space="preserve">
<style type="text/css">
	.st0{filter:url(#Adobe_OpacityMaskFilter);}
	.st1{fill:#FFFFFF;}
	.st2{mask:url(#mask-2_1_);fill:none;stroke:#FFFFFF;stroke-width:2.25;}
	.st3{enable-background:new    ;}
</style>
<title>84926091-4E60-4759-A52F-72CAB697C11B</title>
<desc>Created with sketchtool.</desc>
<g id="Countur">
	<g id="Combined-Shape">
	</g>
	<defs>
		<filter id="Adobe_OpacityMaskFilter" filterUnits="userSpaceOnUse" x="0.1" y="0.3" width="92.6" height="99.9">
			<feColorMatrix  type="matrix" values="1 0 0 0 0  0 1 0 0 0  0 0 1 0 0  0 0 0 1 0"/>
		</filter>
	</defs>
	<mask maskUnits="userSpaceOnUse" x="0.1" y="0.3" width="92.6" height="99.9" id="mask-2_1_">
		<g class="st0">
			<polygon id="path-1_1_" class="st1" points="-1,-2 95.8,-2 95.8,28 29,28 29,103 -1,103 			"/>
		</g>
	</mask>
	<path id="Oval-3" class="st2" d="M10,93.7C-4.8,81.3-0.5,51.8,19.6,27.9S68-5.5,82.8,6.9s10.4,41.8-9.7,65.8S24.7,106.1,10,93.7z"
		/>
</g>
<path id="Stars" class="st1" d="M37.2,115l-3.2,1.7l0.6-3.6l-2.6-2.6l3.6-0.5l1.6-3.3l1.6,3.3l3.6,0.5l-2.6,2.6l0.6,3.6L37.2,115z
	 M51.5,115l-3.2,1.7l0.6-3.6l-2.6-2.6l3.6-0.5l1.6-3.3l1.6,3.3l3.6,0.5l-2.6,2.6l0.6,3.6L51.5,115z M65.7,115l-3.2,1.7l0.6-3.6
	l-2.6-2.6l3.6-0.5l1.6-3.3l1.6,3.3l3.6,0.5l-2.6,2.6l0.6,3.6L65.7,115z M80,115l-3.2,1.7l0.6-3.6l-2.6-2.6l3.6-0.5l1.6-3.3l1.6,3.3
	l3.6,0.5l-2.6,2.6l0.6,3.6L80,115z M95,115l-3.2,1.7l0.6-3.6l-2.6-2.6l3.6-0.5l1.6-3.3l1.6,3.3l3.6,0.5l-2.6,2.6l0.6,3.6L95,115z"/>
<g class="st3">
	<path class="st1" d="M42.1,50.6c-1,0.9-2.4,1.4-3.9,1.4c-1.1,0-2.3-0.3-3.2-0.8c-1.9-1.1-3.2-3.2-3.2-5.8c0-2.5,1.3-4.7,3.3-5.8
		c0.9-0.5,1.9-0.8,3.1-0.8c1.4,0,2.8,0.4,3.9,1.4v-7.6h2.6v19.2h-2.5V50.6z M42,43c-0.8-1-2.1-1.8-3.6-1.8c-2.5,0-4.1,2-4.1,4.2
		c0,2.3,1.8,4.2,4.2,4.2c1.3,0,2.6-0.6,3.5-1.8V43z"/>
	<path class="st1" d="M58.4,50.6c-1,0.9-2.4,1.4-3.9,1.4c-1.1,0-2.3-0.3-3.2-0.8C49.4,50,48,47.9,48,45.4c0-2.5,1.3-4.7,3.3-5.8
		c0.9-0.5,1.9-0.8,3.1-0.8c1.4,0,2.8,0.4,4,1.4v-1.2h2.5v12.7h-2.5V50.6z M58.3,43c-0.8-1-2.1-1.8-3.6-1.8c-2.5,0-4.1,2-4.1,4.2
		c0,2.3,1.8,4.2,4.2,4.2c1.3,0,2.6-0.6,3.5-1.8V43z"/>
	<path class="st1" d="M66.7,32.9c0.9,0,1.7,0.8,1.7,1.7s-0.8,1.7-1.7,1.7c-0.9,0-1.7-0.7-1.7-1.7S65.8,32.9,66.7,32.9z M65.5,39.1
		H68v12.7h-2.6V39.1z"/>
	<path class="st1" d="M72.6,32.6h2.6v19.2h-2.6V32.6z"/>
	<path class="st1" d="M79.7,58.2l3.4-7.8l-5.4-11.4h2.8l4,8.4l3.6-8.4h2.7l-8.3,19.2H79.7z"/>
</g>
<g class="st3">
	<path class="st1" d="M42.1,75.3c-1,0.9-2.4,1.4-3.9,1.4c-1.1,0-2.3-0.3-3.2-0.8c-1.9-1.1-3.2-3.2-3.2-5.8c0-2.5,1.3-4.7,3.3-5.8
		c0.9-0.5,1.9-0.8,3.1-0.8c1.4,0,2.8,0.4,4,1.4v-1.2h2.5v12.7h-2.5V75.3z M42,67.8c-0.8-1-2.1-1.8-3.6-1.8c-2.5,0-4.1,2-4.1,4.2
		c0,2.3,1.8,4.2,4.2,4.2c1.3,0,2.6-0.6,3.5-1.8V67.8z"/>
	<path class="st1" d="M50.4,57.6c0.9,0,1.7,0.8,1.7,1.7S51.3,61,50.4,61s-1.7-0.7-1.7-1.7S49.5,57.6,50.4,57.6z M49.1,63.8h2.6v12.7
		h-2.6V63.8z"/>
	<path class="st1" d="M63.3,66.1C63,66,62.7,66,62.3,66c-1.3,0-2.7,0.9-3.4,2.1v8.4h-2.6V63.8h2.5v1.5c0.6-0.9,1.9-1.7,3.8-1.7
		c0.3,0,0.7,0,1,0.1L63.3,66.1z"/>
	<path class="st1" d="M69.2,76.5h-2.5V57.3h2.6v7.6c1.1-0.9,2.5-1.4,3.9-1.4c1.2,0,2.2,0.3,3.1,0.8c1.9,1.1,3.3,3.3,3.3,5.8
		c0,2.5-1.3,4.6-3.2,5.8c-0.9,0.5-2.1,0.8-3.2,0.8c-1.5,0-2.9-0.5-3.9-1.4V76.5z M69.2,72.5c0.9,1.2,2.2,1.8,3.5,1.8
		c2.5,0,4.2-1.9,4.2-4.2c0-2.2-1.6-4.2-4.1-4.2c-1.5,0-2.8,0.8-3.6,1.8V72.5z"/>
	<path class="st1" d="M85.5,65c0.7-0.6,2-1.5,3.8-1.5c1.9,0,3.5,0.9,4.6,2.2c0.8,1,1.2,2.3,1.2,4.5v6.2h-2.6v-6.3
		c0-1.6-0.3-2.4-0.8-2.9c-0.6-0.8-1.6-1.2-2.6-1.2c-1.7,0-2.9,0.9-3.6,1.8v8.7H83V63.8h2.5V65z"/>
	<path class="st1" d="M102,76.5h-2.5V57.3h2.6v7.6c1.1-0.9,2.5-1.4,3.9-1.4c1.2,0,2.2,0.3,3.1,0.8c1.9,1.1,3.3,3.3,3.3,5.8
		c0,2.5-1.3,4.6-3.2,5.8c-0.9,0.5-2.1,0.8-3.2,0.8c-1.5,0-2.9-0.5-3.9-1.4V76.5z M102,72.5c0.9,1.2,2.2,1.8,3.5,1.8
		c2.5,0,4.2-1.9,4.2-4.2c0-2.2-1.6-4.2-4.1-4.2c-1.5,0-2.8,0.8-3.6,1.8V72.5z"/>
</g>
<g class="st3">
	<path class="st1" d="M40.6,101.3c-0.5,0.2-1.3,0.3-2,0.3c-1.6,0-2.8-0.6-3.6-1.5c-0.8-0.8-1-2-1-3.4v-5.8h-3.2v-2.3H34v-3.5h2.6
		v3.5h4v2.3h-4v5.9c0,0.7,0.1,1.2,0.4,1.6c0.4,0.4,1.1,0.7,1.8,0.7c0.4,0,1-0.1,1.4-0.2L40.6,101.3z"/>
	<path class="st1" d="M45.4,82.4c0.9,0,1.7,0.8,1.7,1.7s-0.8,1.7-1.7,1.7s-1.7-0.7-1.7-1.7S44.5,82.4,45.4,82.4z M44.1,88.6h2.6
		v12.7h-2.6V88.6z"/>
	<path class="st1" d="M53.9,107.7h-2.6V88.6h2.5v1.2c1.2-1,2.5-1.4,4-1.4c1.2,0,2.2,0.3,3.1,0.8c1.9,1.1,3.3,3.3,3.3,5.8
		c0,2.5-1.3,4.6-3.2,5.8c-0.9,0.5-2.1,0.8-3.2,0.8c-1.5,0-2.8-0.5-3.8-1.4V107.7z M53.9,97.3c0.9,1.2,2.2,1.8,3.5,1.8
		c2.5,0,4.2-1.9,4.2-4.2c0-2.2-1.6-4.2-4.1-4.2c-1.5,0-2.8,0.8-3.6,1.8V97.3z"/>
	<path class="st1" d="M67.7,97.9c1.2,0.9,2.5,1.4,3.8,1.4c1.1,0,2.2-0.6,2.2-1.6c0-1.5-2.1-1.5-4-2.2c-1.5-0.5-2.9-1.5-2.9-3.3
		c0-2.7,2.4-4,4.7-4c1.9,0,3.2,0.6,4.2,1.4l-1.3,1.8c-0.8-0.6-1.7-1-2.7-1c-1.2,0-2.3,0.6-2.3,1.6c0,0.9,1,1.2,2.3,1.5
		c2,0.5,4.6,1.4,4.6,4c0,2.4-2.2,3.9-4.7,3.9c-2,0-3.7-0.6-5.1-1.8L67.7,97.9z"/>
</g>
</svg>
