<?xml version="1.0" encoding="UTF-8"?>
<svg width="1280px" height="800px" viewBox="0 0 1280 800" version="1.1" xmlns="http://www.w3.org/2000/svg" xmlns:xlink="http://www.w3.org/1999/xlink">
    <!-- Generator: sketchtool 51.1 (57501) - http://www.bohemiancoding.com/sketch -->
    <title>433D5790-C2D2-42BF-98CE-8E5A97981B67</title>
    <desc>Created with sketchtool.</desc>
    <defs></defs>
    <g id="Page-1" stroke="none" stroke-width="1" fill="none" fill-rule="evenodd" opacity="0.900000036">
        <g id="Subscribe-Form" fill-rule="nonzero">
            <g id="Overlay" transform="translate(-590.000000, -372.000000)">
                <rect id="Bg" fill="#0C1842" x="590" y="372" width="1280" height="800"></rect>
                <path d="M862.5,0 L949.10254,50 L86.6025404,1543.89382 L0,1493.89382 L862.5,0 Z M1061.5,0 L1148.10254,50 L285.60254,1543.89382 L199,1493.89382 L1061.5,0 Z M1259.5,0 L1346.10254,50 L483.60254,1543.89382 L397,1493.89382 L1259.5,0 Z M1457.5,0 L1544.10254,50 L681.60254,1543.89382 L595,1493.89382 L1457.5,0 Z M1655.5,0 L1742.10254,50 L879.60254,1543.89382 L793,1493.89382 L1655.5,0 Z M1853.5,0 L1940.10254,50 L1077.60254,1543.89382 L991,1493.89382 L1853.5,0 Z M2051.5,0 L2138.10254,50 L1275.60254,1543.89382 L1189,1493.89382 L2051.5,0 Z M2249.5,0 L2336.10254,50 L1473.60254,1543.89382 L1387,1493.89382 L2249.5,0 Z M2447.5,0 L2534.10254,50 L1671.60254,1543.89382 L1585,1493.89382 L2447.5,0 Z" id="Lines" fill="#FFFFFF" opacity="0.03"></path>
            </g>
        </g>
    </g>
</svg>